<svg width="76" height="47" viewBox="0 0 76 47" fill="none" xmlns="http://www.w3.org/2000/svg">
<g clip-path="url(#clip0_2_476)">
<path d="M55.223 28.1228C55.223 32.7172 53.4109 37.1234 50.1853 40.3722C46.9598 43.6209 42.585 45.4461 38.0234 45.4461C33.4618 45.4461 29.087 43.6209 25.8615 40.3722C22.636 37.1234 20.8239 32.7172 20.8239 28.1228" stroke="#282828" stroke-width="2.5" stroke-miterlimit="10" stroke-linecap="round"/>
<path d="M59.8708 28.1218L40.1473 8.67923C39.5816 8.12149 38.8214 7.80914 38.0298 7.80914C37.2382 7.80914 36.478 8.12149 35.9123 8.67923L16.1918 28.1218" stroke="#282828" stroke-width="2.5" stroke-miterlimit="10" stroke-linecap="round"/>
<path d="M68.2416 44.9145V2.63986" stroke="#282828" stroke-width="2.5" stroke-linecap="round" stroke-linejoin="round"/>
<path d="M62.8154 6.55589L68.2406 2.21716L74.0098 6.55589" stroke="#282828" stroke-width="2.5" stroke-linecap="round" stroke-linejoin="round"/>
<path d="M62.8154 12.623L68.2406 8.28427L74.0098 12.623" stroke="#282828" stroke-width="2.5" stroke-linecap="round" stroke-linejoin="round"/>
<path d="M62.8154 18.5584L68.2406 14.2167L74.0098 18.5584" stroke="#282828" stroke-width="2.5" stroke-linecap="round" stroke-linejoin="round"/>
<path d="M62.8124 24.3562L68.2377 20.0175L74.0069 24.3562" stroke="#282828" stroke-width="2.5" stroke-linecap="round" stroke-linejoin="round"/>
<path d="M38.0313 44.9669C42.4736 44.9669 46.0748 40.8603 46.0748 35.7945C46.0748 30.7288 42.4736 26.6221 38.0313 26.6221C33.589 26.6221 29.9878 30.7288 29.9878 35.7945C29.9878 40.8603 33.589 44.9669 38.0313 44.9669Z" stroke="#282828" stroke-width="2.5" stroke-miterlimit="10" stroke-linecap="round"/>
<path d="M8.0863 2.85168V45.1263" stroke="#282828" stroke-width="2.5" stroke-linecap="round" stroke-linejoin="round"/>
<path d="M2.66101 6.77467L8.08625 2.42902L13.8555 6.77467" stroke="#282828" stroke-width="2.5" stroke-linecap="round" stroke-linejoin="round"/>
<path d="M2.66101 12.8319L8.08625 8.49609L13.8555 12.8319" stroke="#282828" stroke-width="2.5" stroke-linecap="round" stroke-linejoin="round"/>
<path d="M2.66101 18.7703L8.08625 14.4286L13.8555 18.7703" stroke="#282828" stroke-width="2.5" stroke-linecap="round" stroke-linejoin="round"/>
<path d="M2.65717 24.5681L8.0824 20.2294L13.8516 24.5681" stroke="#282828" stroke-width="2.5" stroke-linecap="round" stroke-linejoin="round"/>
</g>
<defs>
<clipPath id="clip0_2_476">
<rect width="74.7995" height="45.7056" fill="white" transform="translate(0.931335 0.979797)"/>
</clipPath>
</defs>
</svg>
