<svg width="24" height="22" viewBox="0 0 24 22" fill="none" xmlns="http://www.w3.org/2000/svg">
<path d="M22.65 13.39L12 21.13L1.35 13.39C1.20722 13.285 1.10132 13.1375 1.04743 12.9687C0.993549 12.7998 0.994447 12.6183 1.05 12.45L2.27 8.66996L4.71 1.15996C4.73367 1.09877 4.77134 1.04397 4.82 0.999961C4.89924 0.927583 5.00268 0.887451 5.11 0.887451C5.21732 0.887451 5.32076 0.927583 5.4 0.999961C5.45138 1.04963 5.48924 1.11158 5.51 1.17996L7.95 8.66996H16.05L18.49 1.15996C18.5137 1.09877 18.5513 1.04397 18.6 0.999961C18.6792 0.927583 18.7827 0.887451 18.89 0.887451C18.9973 0.887451 19.1008 0.927583 19.18 0.999961C19.2314 1.04963 19.2692 1.11158 19.29 1.17996L21.73 8.68996L23 12.45C23.0505 12.6234 23.0438 12.8086 22.9807 12.9779C22.9177 13.1473 22.8017 13.2918 22.65 13.39V13.39Z" stroke="white" stroke-linecap="round" stroke-linejoin="round"/>
</svg>
