<svg width="37" height="36" viewBox="0 0 37 36" fill="none" xmlns="http://www.w3.org/2000/svg">
<path d="M12.488 16.5501C11.7482 16.5526 11.0216 16.7454 10.378 17.1101C11.2841 14.7646 12.787 12.6964 14.738 11.1101C14.8496 11.0181 14.942 10.9051 15.01 10.7775C15.0779 10.6498 15.1201 10.5101 15.134 10.3661C15.1479 10.2222 15.1334 10.0769 15.0912 9.93864C15.0489 9.80033 14.9799 9.6717 14.888 9.56007C14.7961 9.44845 14.683 9.35602 14.5554 9.28807C14.4278 9.22013 14.288 9.17798 14.144 9.16406C14.0001 9.15013 13.8549 9.16468 13.7165 9.2069C13.5782 9.24911 13.4496 9.31815 13.338 9.41007C9.33798 12.6601 7.55798 17.1601 7.55798 19.9501C7.56488 20.9366 7.85885 21.8997 8.40402 22.7219C8.94919 23.5441 9.72196 24.1898 10.628 24.5801C11.2143 24.8641 11.8565 25.0144 12.508 25.0201C13.0814 25.0479 13.6546 24.9591 14.1927 24.7588C14.7308 24.5586 15.2226 24.2511 15.6383 23.8551C16.054 23.4591 16.385 22.9828 16.6111 22.4551C16.8372 21.9274 16.9538 21.3592 16.9538 20.7851C16.9538 20.2109 16.8372 19.6428 16.6111 19.1151C16.385 18.5873 16.054 18.111 15.6383 17.715C15.2226 17.319 14.7308 17.0116 14.1927 16.8113C13.6546 16.6111 13.0814 16.5222 12.508 16.5501H12.488Z" fill="#EB5148"/>
<path d="M23.6279 16.55C22.888 16.5516 22.1612 16.7445 21.5179 17.11C22.4237 14.767 23.9226 12.6995 25.8679 11.11C25.9896 11.0223 26.0921 10.9105 26.1691 10.7816C26.246 10.6528 26.2958 10.5095 26.3153 10.3607C26.3348 10.2119 26.3237 10.0607 26.2826 9.91633C26.2415 9.77198 26.1712 9.63758 26.0762 9.52139C25.9812 9.40519 25.8635 9.30967 25.7302 9.2407C25.5969 9.17173 25.4508 9.13077 25.3011 9.12034C25.1514 9.1099 25.0011 9.13022 24.8595 9.18004C24.718 9.22986 24.5881 9.30812 24.4779 9.41002C20.4779 12.66 18.6979 17.16 18.6979 19.95C18.7026 20.9253 18.988 21.8787 19.52 22.6962C20.052 23.5136 20.808 24.1607 21.6979 24.56C22.2991 24.8524 22.9594 25.0029 23.6279 25C24.2013 25.0279 24.7745 24.939 25.3126 24.7388C25.8507 24.5385 26.3425 24.2311 26.7582 23.8351C27.1739 23.4391 27.5049 22.9628 27.731 22.435C27.9571 21.9073 28.0737 21.3392 28.0737 20.765C28.0737 20.1909 27.9571 19.6227 27.731 19.095C27.5049 18.5673 27.1739 18.091 26.7582 17.695C26.3425 17.299 25.8507 16.9915 25.3126 16.7913C24.7745 16.591 24.2013 16.5021 23.6279 16.53V16.55Z" fill="#EB5148"/>
</svg>
